<svg xmlns="http://www.w3.org/2000/svg" xmlns:xlink="http://www.w3.org/1999/xlink" width="529" zoomAndPan="magnify" viewBox="0 0 396.75 396.749985" height="529" preserveAspectRatio="xMidYMid meet" version="1.0"><defs><clipPath id="1c495d0be0"><path d="M 110 0.230469 L 283.675781 0.230469 L 283.675781 284.230469 L 110 284.230469 Z M 110 0.230469 " clip-rule="nonzero"/></clipPath><clipPath id="fdabb3f0d9"><path d="M 1.175781 111 L 62 111 L 62 173 L 1.175781 173 Z M 1.175781 111 " clip-rule="nonzero"/></clipPath><clipPath id="d0c918028a"><rect x="0" width="284" y="0" height="285"/></clipPath></defs><g transform="matrix(1, 0, 0, 1, 56, 56)"><g clip-path="url(#d0c918028a)"><g clip-path="url(#1c495d0be0)"><path fill="#114dcd" d="M 110.386719 22.882812 L 132.796875 0.300781 L 283.675781 150.074219 L 132.132812 284.195312 L 111.046875 260.375 L 237.179688 148.746094 L 110.386719 22.882812 " fill-opacity="1" fill-rule="nonzero"/></g><path fill="#114dcd" d="M 60.777344 75.96875 L 83.507812 53.714844 L 176.824219 149.027344 L 82.851562 234.597656 L 61.433594 211.074219 L 131.019531 147.710938 L 60.777344 75.96875 " fill-opacity="1" fill-rule="nonzero"/><g clip-path="url(#fdabb3f0d9)"><path fill="#114dcd" d="M 31.253906 172.4375 L 0.824219 142.007812 L 31.253906 111.578125 L 61.683594 142.007812 L 31.253906 172.4375 " fill-opacity="1" fill-rule="nonzero"/></g></g></g></svg>